<svg width="22" height="23" viewBox="0 0 22 23" fill="none" xmlns="http://www.w3.org/2000/svg">
<path d="M21.4844 21.5391L14.7812 14.8359C16.0703 13.375 16.8438 11.4414 16.8438 9.37891C16.8438 4.73828 13.0625 0.957031 8.42188 0.957031C6.14453 0.957031 4.03906 1.85938 2.44922 3.40625C0.859375 4.99609 0 7.14453 0 9.37891C0 14.0195 3.78125 17.8008 8.42188 17.8008C10.4844 17.8008 12.418 17.0273 13.8789 15.7383L20.582 22.4414L21.4844 21.5391ZM8.42188 16.5117C4.46875 16.5117 1.28906 13.2891 1.28906 9.37891C1.28906 7.48828 2.01953 5.68359 3.39453 4.35156C4.72656 3.01953 6.48828 2.24609 8.42188 2.24609C12.332 2.24609 15.5117 5.46875 15.5117 9.37891C15.5117 13.2891 12.332 16.5117 8.42188 16.5117Z" fill="black"/>
</svg>
